<?xml version="1.0" standalone="no"?>
<!DOCTYPE svg PUBLIC "-//W3C//DTD SVG 20010904//EN"
 "http://www.w3.org/TR/2001/REC-SVG-20010904/DTD/svg10.dtd">
<svg version="1.0" xmlns="http://www.w3.org/2000/svg"
 width="15px" height="15px" viewBox="0 0 100.000000 100.000000"
 preserveAspectRatio="xMidYMid meet">
<g transform="translate(0.000000,100.000000) scale(0.100000,-0.100000)"
fill="#fff" stroke="none">
<path d="M437 872 c-57 -58 -72 -92 -40 -92 9 0 32 14 50 32 l33 32 0 -112 c0
-105 1 -112 20 -112 19 0 20 7 20 112 l0 112 33 -32 c36 -35 67 -42 67 -14 0
15 -107 132 -121 132 -2 0 -30 -26 -62 -58z"/>
<path d="M125 560 l-59 -60 59 -60 c59 -60 95 -76 95 -43 0 9 -14 32 -32 50
l-32 33 112 0 c105 0 112 1 112 20 0 19 -7 20 -112 20 l-112 0 32 33 c18 18
32 41 32 50 0 33 -36 17 -95 -43z"/>
<path d="M780 603 c0 -9 14 -32 32 -50 l32 -33 -112 0 c-105 0 -112 -1 -112
-20 0 -19 7 -20 112 -20 l112 0 -32 -33 c-18 -18 -32 -41 -32 -50 0 -33 36
-17 95 43 l59 60 -59 60 c-59 60 -95 76 -95 43z"/>
<path d="M480 268 l0 -112 -33 32 c-18 18 -41 32 -50 32 -33 0 -17 -36 43 -95
l60 -59 60 59 c60 59 76 95 43 95 -9 0 -32 -14 -50 -32 l-33 -32 0 112 c0 105
-1 112 -20 112 -19 0 -20 -7 -20 -112z"/>
</g>
</svg>
